<?xml version="1.0" standalone="no"?>
<!DOCTYPE svg PUBLIC "-//W3C//DTD SVG 20010904//EN"
 "http://www.w3.org/TR/2001/REC-SVG-20010904/DTD/svg10.dtd">
<svg version="1.0" xmlns="http://www.w3.org/2000/svg"
 width="332.000000pt" height="332.000000pt" viewBox="0 0 332.000000 332.000000"
 preserveAspectRatio="xMidYMid meet">
<metadata>
Created by potrace 1.11, written by Peter Selinger 2001-2013
</metadata>
<g transform="translate(0.000000,332.000000) scale(0.100000,-0.100000)"
fill="#000000" stroke="none">
<path d="M741 3253 c-43 -147 -60 -390 -71 -1043 -7 -373 -13 -513 -24 -566
-8 -39 -22 -140 -31 -225 -9 -85 -23 -183 -31 -219 -8 -36 -19 -103 -25 -150
-6 -47 -19 -135 -30 -196 -10 -61 -19 -137 -19 -169 0 -53 -4 -63 -42 -114
l-43 -56 2 -160 c3 -217 5 -222 75 -252 52 -23 61 -24 113 -13 l57 12 38 81
c22 45 55 134 74 197 19 63 54 174 79 245 53 154 102 355 122 503 8 59 19 123
24 142 13 46 31 225 31 308 0 36 5 93 11 127 9 52 7 81 -11 180 -13 73 -18
136 -15 164 5 37 109 355 122 370 4 6 44 -16 76 -42 25 -21 29 -36 57 -220 35
-233 68 -348 157 -547 36 -80 73 -167 83 -195 10 -27 30 -76 44 -107 23 -52
24 -62 15 -115 -13 -73 16 -254 61 -388 17 -50 49 -152 70 -229 22 -76 41
-140 43 -142 2 -2 27 20 55 50 36 38 53 64 57 92 4 22 17 86 30 144 13 58 31
145 40 193 16 86 15 91 -5 152 -19 56 -20 72 -11 151 43 385 72 542 126 669
42 101 71 182 141 398 26 81 50 147 54 147 3 0 27 -21 53 -48 54 -55 76 -111
113 -282 18 -89 23 -132 18 -190 -8 -105 31 -538 61 -675 13 -60 29 -138 35
-171 15 -86 50 -167 99 -231 l43 -54 2 -252 2 -252 35 -104 34 -105 58 -34
c32 -19 61 -31 64 -28 32 32 45 287 47 936 l1 145 -42 105 c-50 128 -127 381
-142 471 -6 36 -11 126 -11 200 -1 74 -5 152 -10 174 -8 37 -48 154 -150 434
-22 63 -46 151 -52 195 -10 74 -66 253 -116 366 -16 36 -118 150 -135 150 -3
0 -29 -11 -59 -24 -51 -23 -59 -31 -100 -103 -24 -43 -53 -100 -63 -128 -10
-27 -37 -88 -61 -135 -24 -47 -55 -128 -70 -180 -14 -52 -41 -149 -60 -214
-22 -75 -39 -160 -45 -230 -7 -69 -23 -155 -44 -226 -45 -153 -55 -214 -55
-334 l-1 -101 -24 47 c-16 30 -33 97 -50 191 -13 80 -38 188 -55 240 -18 57
-30 115 -30 149 0 66 -29 153 -103 308 -30 63 -71 165 -91 226 -31 93 -36 119
-30 165 7 66 -20 135 -87 218 -24 30 -60 81 -79 114 -35 60 -36 61 -145 108
-91 40 -121 48 -172 48 l-62 1 -20 -67z m1982 -2747 c4 -10 1 -13 -8 -9 -8 3
-12 9 -9 14 7 12 11 11 17 -5z"/>
</g>
</svg>
