<?xml version="1.0" standalone="no"?>
<!DOCTYPE svg PUBLIC "-//W3C//DTD SVG 20010904//EN"
 "http://www.w3.org/TR/2001/REC-SVG-20010904/DTD/svg10.dtd">
<svg version="1.0" xmlns="http://www.w3.org/2000/svg"
 width="300.000000pt" height="209.000000pt" viewBox="0 0 300.000000 209.000000"
 preserveAspectRatio="xMidYMid meet">
<metadata>
Created by potrace 1.10, written by Peter Selinger 2001-2011
</metadata>
<g transform="translate(0.000000,209.000000) scale(0.100000,-0.100000)"
fill="#656565" stroke="none">
<path d="M776 2059 c-104 -14 -191 -36 -245 -63 -27 -14 -51 -22 -55 -19 -3 3
-14 -1 -23 -9 -10 -9 -46 -23 -80 -32 -172 -43 -267 -140 -320 -327 -15 -54
-18 -108 -20 -359 0 -162 -6 -335 -12 -385 -16 -132 -13 -279 7 -356 49 -187
239 -357 471 -422 71 -20 101 -21 446 -23 456 -2 423 -1 580 -13 146 -12 280
-12 735 -3 341 8 353 10 372 63 5 16 15 29 22 29 24 0 84 50 100 85 10 20 21
57 26 83 4 26 26 90 48 142 22 52 50 133 61 180 83 341 102 489 82 627 -7 48
-19 156 -26 238 -7 83 -19 166 -27 185 -43 102 -211 198 -483 277 -345 99
-486 113 -1125 112 -256 -1 -496 -6 -534 -10z m-541 -301 c-28 -29 -51 -55
-52 -57 -2 -2 -3 1 -3 7 0 14 83 102 95 102 5 0 -13 -24 -40 -52z m2205 -78
c0 -5 -7 -10 -16 -10 -8 0 -12 5 -9 10 3 6 10 10 16 10 5 0 9 -4 9 -10z m410
-47 c0 -7 -2 -13 -5 -13 -6 0 -35 56 -35 67 1 13 40 -41 40 -54z m-730 -130
c0 -13 -3 -13 -16 -3 -8 8 -20 22 -25 32 -10 19 -9 19 15 3 14 -10 26 -24 26
-32z m-109 -15 c11 -21 11 -22 -4 -9 -10 7 -17 17 -17 22 0 15 9 10 21 -13z
m-953 -39 c34 -11 112 -49 173 -85 221 -131 454 -257 646 -348 74 -35 115 -61
144 -93 23 -25 37 -49 33 -53 -12 -11 -146 -50 -314 -90 -74 -18 -227 -56
-340 -85 -113 -29 -230 -59 -260 -66 -30 -7 -89 -21 -130 -32 -41 -11 -84 -22
-96 -24 -20 -5 -21 0 -27 124 -10 193 -8 301 8 488 9 94 13 186 10 206 -5 26
-2 39 9 49 9 7 16 19 16 26 0 16 35 11 128 -17z m1588 -134 c-22 -17 -46 -20
-46 -6 0 10 22 18 50 20 11 0 10 -4 -4 -14z m-2009 -332 c-3 -10 -5 -4 -5 12
0 17 2 24 5 18 2 -7 2 -21 0 -30z m-487 -233 c0 -5 -2 -10 -4 -10 -3 0 -8 5
-11 10 -3 6 -1 10 4 10 6 0 11 -4 11 -10z m1873 -262 c-2 -5 -8 -8 -14 -8 -11
0 -12 33 -2 44 8 8 23 -25 16 -36z m-1063 -2 c0 -2 -9 -6 -20 -9 -11 -3 -20
-1 -20 4 0 5 9 9 20 9 11 0 20 -2 20 -4z m-173 -303 c-4 -3 -10 -3 -14 0 -3 4
0 7 7 7 7 0 10 -3 7 -7z"/>
</g>
</svg>
