<?xml version="1.0" standalone="no"?>
<!DOCTYPE svg PUBLIC "-//W3C//DTD SVG 20010904//EN"
 "http://www.w3.org/TR/2001/REC-SVG-20010904/DTD/svg10.dtd">
<svg version="1.0" xmlns="http://www.w3.org/2000/svg"
 width="300.000000pt" height="300.000000pt" viewBox="0 0 300.000000 300.000000"
 preserveAspectRatio="xMidYMid meet">
<metadata>
Created by potrace 1.10, written by Peter Selinger 2001-2011
</metadata>
<g transform="translate(0.000000,300.000000) scale(0.050000,-0.050000)"
fill="#656565" stroke="none">
<path d="M4640 5967 c-49 -3 -162 -16 -250 -28 -117 -16 -352 -16 -852 0 -461
14 -771 15 -930 2 -131 -11 -602 -24 -1047 -30 -1057 -15 -1158 -38 -1315
-307 -109 -186 -164 -909 -93 -1231 39 -179 46 -1246 10 -1583 -12 -121 -32
-382 -44 -580 -11 -198 -35 -479 -53 -625 -78 -641 29 -984 346 -1109 503
-198 708 -226 1858 -256 809 -20 1346 -49 1570 -82 646 -98 989 -75 1450 95
326 121 516 474 610 1133 43 298 68 3503 29 3684 -67 313 -120 422 -298 606
-283 295 -448 347 -991 311z m466 -225 c281 -67 523 -344 604 -692 35 -154 38
-351 20 -1780 -5 -440 -11 -981 -11 -1202 -4 -808 -156 -1427 -389 -1580 -217
-142 -723 -224 -1105 -179 -162 19 -403 47 -535 62 -132 15 -573 37 -980 48
-1529 42 -1692 61 -2171 244 -269 102 -322 301 -250 937 15 138 33 381 40 540
7 160 28 434 46 610 45 440 43 1364 -5 1622 -25 138 -31 254 -23 490 25 806
24 805 987 826 317 7 725 18 906 26 182 7 798 15 1370 17 572 3 1085 14 1140
24 147 29 184 27 356 -13z"/>
<path d="M4424 5488 c-164 -84 -225 -211 -246 -508 -9 -126 -21 -302 -28 -390
-18 -243 -32 -235 440 -256 518 -24 561 3 681 416 123 427 86 536 -211 623
-60 18 -129 45 -153 61 -41 27 -166 55 -337 77 -53 7 -102 -1 -146 -23z"/>
<path d="M2720 3919 c-49 -11 -123 -14 -164 -8 -502 81 -775 -660 -452 -1225
268 -469 817 -572 1429 -268 457 228 610 532 478 953 -81 261 -228 394 -565
511 -135 46 -578 69 -726 37z m273 -230 c0 -14 -11 -21 -24 -16 -14 5 -31 0
-38 -12 -21 -33 -57 -25 -43 11 8 20 3 28 -13 22 -14 -5 -22 -21 -19 -35 5
-21 0 -21 -24 -1 -39 33 -129 -9 -94 -44 12 -12 22 -31 22 -43 0 -12 -9 -7
-20 9 -22 34 -27 1 -7 -50 10 -27 16 -28 32 -7 13 20 16 16 10 -14 -7 -29 2
-42 28 -44 20 -1 37 10 37 26 0 49 58 32 120 -36 32 -36 59 -54 59 -40 1 14
-9 25 -22 25 -14 0 -10 15 10 37 18 20 27 42 20 50 -8 7 -2 13 12 13 17 0 21
16 13 48 -8 33 -2 52 19 60 18 6 26 21 19 32 -7 12 2 14 22 6 24 -9 30 -5 20
11 -8 12 -5 23 7 23 11 0 21 -8 21 -18 0 -10 5 -33 12 -50 8 -22 1 -28 -27
-23 -21 4 -51 -1 -67 -10 -19 -12 -20 -18 -4 -19 14 0 20 -13 13 -30 -6 -16
-1 -30 11 -30 12 0 22 -10 22 -21 0 -12 -9 -16 -20 -9 -28 17 -25 -17 4 -46
18 -18 16 -30 -13 -51 -41 -30 -10 -67 34 -40 32 20 74 22 127 4 24 -8 53 -4
64 7 16 16 19 10 11 -20 -10 -37 -4 -41 50 -34 34 4 67 -1 74 -11 6 -11 19
-15 29 -9 9 5 12 -8 6 -30 -16 -62 6 -98 53 -86 33 9 37 17 19 38 -18 22 -14
28 22 28 30 0 41 9 33 29 -7 19 2 27 29 25 22 -1 38 -16 36 -33 -5 -62 3 -79
45 -92 33 -10 36 -17 15 -31 -17 -11 -19 -18 -5 -18 13 0 19 -17 13 -40 -6
-22 -18 -35 -27 -29 -9 5 -13 -8 -9 -30 5 -26 -3 -41 -21 -41 -16 0 -23 -12
-16 -30 6 -17 -1 -46 -16 -64 -23 -29 -23 -32 6 -21 34 13 39 -14 10 -60 -10
-17 -5 -21 16 -13 17 7 31 28 31 48 0 19 14 47 31 61 55 46 -7 -84 -70 -146
-49 -48 -59 -51 -81 -25 -27 32 -90 42 -71 11 6 -10 1 -25 -12 -33 -16 -10
-18 -5 -6 14 14 24 12 24 -17 1 -36 -29 -47 -53 -16 -34 10 6 23 -2 29 -18 7
-20 1 -25 -19 -18 -17 7 -27 2 -24 -11 6 -22 -61 -65 -202 -130 -79 -37 -142
-41 -142 -11 0 12 8 16 18 10 30 -18 41 45 12 69 -15 13 -22 37 -16 54 11 28
16 27 39 -4 14 -20 22 -43 16 -51 -5 -8 5 -20 22 -27 18 -6 26 -3 19 8 -7 11
2 20 19 20 18 0 37 13 44 30 6 16 19 25 29 19 10 -6 18 0 18 15 1 19 6 18 20
-4 17 -26 19 -25 20 5 0 29 -11 33 -55 22 -55 -13 -55 -13 -17 30 35 39 35 43
4 43 -19 0 -29 -9 -22 -20 7 -11 4 -20 -7 -20 -11 0 -23 9 -27 21 -3 11 -27 2
-51 -21 -25 -23 -45 -36 -45 -30 0 6 -18 2 -39 -9 -30 -16 -43 -14 -56 10 -15
26 -25 24 -71 -19 -48 -45 -55 -46 -73 -16 -11 19 -20 23 -20 10 -1 -41 -52
-8 -56 35 -1 24 7 36 21 29 13 -6 9 0 -10 13 -31 23 -30 29 7 81 22 31 30 56
18 56 -11 0 -21 -7 -21 -17 0 -9 -13 -16 -30 -16 -16 0 -30 8 -30 18 0 9 -10
11 -23 3 -15 -9 -18 -5 -9 9 8 13 23 19 33 12 10 -6 36 -1 57 10 28 15 43 15
53 0 7 -12 22 -18 34 -14 31 10 35 68 5 68 -16 0 -21 -13 -14 -31 9 -27 6 -28
-19 -7 -17 13 -34 22 -39 20 -4 -3 6 10 22 27 17 18 37 29 45 24 8 -4 15 6 15
23 0 17 -16 31 -35 32 -30 0 -29 6 10 38 36 30 39 39 15 48 -19 7 -30 0 -30
-19 0 -17 -9 -25 -19 -19 -11 7 -15 24 -10 37 6 15 -7 27 -31 28 -28 3 -40 -9
-42 -40 0 -24 -6 -33 -11 -19 -17 40 -45 29 -37 -15 5 -26 -3 -40 -22 -40 -17
0 -25 -9 -18 -20 7 -11 4 -20 -7 -20 -10 0 -24 -14 -31 -31 -6 -17 -4 -27 5
-21 17 11 24 -20 27 -115 1 -38 7 -48 18 -30 19 31 98 41 98 13 0 -10 -19 -13
-42 -5 -40 12 -41 11 -7 -39 32 -50 32 -52 -2 -39 -24 9 -31 6 -21 -9 9 -16 3
-19 -21 -10 -21 8 -26 16 -11 21 26 9 34 47 9 43 -43 -7 -68 5 -59 29 6 14 -2
26 -17 26 -15 0 -22 -9 -15 -21 8 -16 5 -16 -12 0 -13 12 -17 37 -10 56 9 24
18 28 28 12 10 -17 18 -15 26 6 7 19 -4 34 -29 41 -23 6 -36 5 -29 -2 14 -14
-26 -65 -51 -65 -12 0 -12 13 -1 33 12 21 9 50 -9 85 -23 45 -23 55 4 75 27
20 26 24 -5 37 -25 10 -28 18 -10 24 18 7 20 17 5 35 -14 17 -15 42 -3 73 11
27 20 39 21 28 1 -11 10 -6 21 10 16 24 19 24 20 2 0 -15 -16 -40 -35 -56 -32
-26 -31 -26 7 -8 24 11 49 14 56 7 8 -8 9 0 2 18 -9 22 8 41 54 63 76 36 151
114 110 114 -14 0 -37 -11 -49 -23 -18 -18 -27 -16 -36 10 -8 18 -29 33 -49
33 -19 0 -47 15 -63 34 -23 29 -23 31 3 15 51 -30 76 -27 86 13 6 21 2 38 -8
38 -10 0 -18 13 -18 28 0 16 -11 33 -25 39 -15 6 -10 11 11 11 20 1 31 10 25
20 -6 10 -29 14 -51 8 -22 -6 -40 -2 -40 8 0 24 135 72 160 56 11 -7 20 -4 20
6 0 11 48 19 107 19 73 0 106 -8 106 -26z m267 -19 c13 -16 33 -24 44 -17 13
7 10 19 -7 31 -18 13 -11 14 23 5 80 -22 180 -66 180 -79 0 -7 -10 -6 -23 2
-15 9 -18 5 -8 -11 9 -13 33 -20 54 -15 21 6 51 -3 67 -18 16 -16 36 -28 44
-26 26 6 62 -82 51 -125 -13 -50 -53 -37 -62 21 -4 30 -16 41 -36 34 -16 -6
-53 10 -82 37 -51 48 -99 51 -71 5 9 -17 4 -17 -17 1 -17 13 -39 18 -49 10 -9
-8 -1 5 19 29 36 42 36 43 -5 32 -27 -7 -42 -1 -42 15 0 14 -5 20 -12 14 -7
-7 -34 -4 -60 6 -33 12 -48 11 -48 -5 0 -12 -6 -17 -13 -10 -7 7 -2 26 11 42
18 22 18 30 -2 38 -16 7 -17 11 -3 12 12 1 33 -11 47 -28z m-990 -230 c36 0
52 -50 24 -78 -12 -12 -17 -22 -11 -22 6 0 28 20 49 43 21 24 27 37 13 29 -14
-8 -25 -10 -25 -4 0 6 17 20 38 31 41 22 52 -35 12 -63 -10 -8 1 -21 25 -30
43 -16 44 -17 5 -41 -31 -20 -37 -19 -29 1 7 18 -8 26 -45 25 -47 -1 -55 7
-51 45 3 27 -4 41 -15 34 -11 -7 -20 -8 -20 -3 0 5 -3 22 -7 36 -3 15 -3 20 2
12 5 -8 20 -15 35 -15z m377 -88 c31 -47 30 -48 -37 -56 -37 -4 -63 -1 -58 6
4 8 -2 18 -15 22 -14 5 -10 20 12 42 45 45 60 43 98 -14z m-438 -175 c-8 -25
-6 -37 6 -30 11 6 29 -10 41 -36 18 -40 16 -50 -12 -57 -24 -7 -21 -10 11 -12
25 -1 45 -12 45 -23 0 -12 -7 -17 -16 -11 -9 5 -29 1 -45 -9 -22 -14 -17 -19
21 -19 47 -1 48 -3 14 -29 -23 -17 -29 -32 -15 -40 11 -7 21 -4 21 8 0 11 10
21 21 21 12 0 16 -9 9 -20 -7 -11 6 -20 29 -20 46 0 53 -20 17 -56 -19 -19
-18 -30 1 -49 20 -20 33 -15 65 25 35 43 38 44 19 6 -18 -37 -15 -48 19 -66
45 -24 53 -3 15 40 -21 24 -20 24 10 2 41 -31 47 -82 9 -82 -14 0 -38 11 -53
25 -21 21 -24 15 -13 -30 7 -32 4 -55 -8 -55 -11 0 -18 7 -15 15 3 8 1 15 -5
16 -24 2 -100 80 -100 103 0 15 -9 26 -20 26 -11 0 -20 9 -20 19 0 11 15 14
33 7 22 -8 29 -4 23 16 -6 15 -23 26 -39 23 -41 -7 -103 127 -79 171 11 20 11
46 0 67 -10 19 -12 48 -6 66 18 47 33 37 17 -12z m268 -51 c-19 -22 -18 -27 2
-22 14 3 30 -7 35 -24 8 -27 7 -27 -12 0 -18 25 -22 21 -24 -20 -3 -47 -4 -47
-12 -5 -5 25 -23 45 -40 45 -24 0 -26 6 -9 27 13 15 17 32 11 38 -7 7 7 7 30
1 35 -9 38 -16 19 -40z m3 -502 c0 -8 18 -17 40 -19 22 -1 40 8 40 21 0 14 8
12 20 -6 17 -27 19 -27 20 0 1 23 6 21 22 -7 12 -20 19 -39 15 -43 -34 -32
-227 17 -206 52 14 22 49 24 49 2z m294 -57 c-19 -19 27 -69 49 -55 10 6 32 0
49 -14 17 -13 29 -16 27 -6 -8 41 3 56 21 28 16 -26 23 -24 50 10 29 38 30 38
9 -11 -31 -73 -180 -83 -227 -15 -28 39 -41 37 -35 -7 1 -7 -16 -8 -37 -3 -22
6 -35 19 -28 29 6 10 19 12 29 6 11 -6 19 -2 19 8 0 11 16 24 35 29 19 5 39
10 43 12 5 1 3 -4 -4 -11z"/>
<path d="M3480 3149 c0 -12 11 -33 25 -48 20 -22 20 -24 -3 -11 -22 12 -26 4
-18 -37 9 -46 5 -51 -35 -41 -25 6 -51 1 -60 -13 -11 -18 -7 -20 13 -8 24 14
24 12 1 -17 -30 -37 -53 -47 -33 -14 7 11 2 20 -10 20 -12 0 -18 7 -13 15 5 8
-19 13 -54 12 -96 -6 -96 -6 -84 -25 6 -10 -3 -23 -21 -30 -45 -17 -48 -16
-35 18 7 19 -1 30 -21 30 -18 0 -32 -16 -32 -35 -1 -29 -4 -30 -19 -6 -14 23
-24 17 -43 -30 -14 -32 -39 -75 -55 -94 -16 -19 -23 -36 -16 -37 7 -2 24 -5
38 -6 14 -2 23 -13 21 -24 -2 -11 15 -31 37 -45 23 -14 35 -17 29 -5 -7 11 5
30 28 42 23 12 36 31 29 41 -6 10 -1 19 12 19 15 0 19 20 12 55 -6 30 -7 44 0
30 6 -14 20 -19 32 -12 12 8 15 4 7 -10 -29 -47 12 -63 49 -18 37 44 37 44 30
3 -7 -36 1 -42 50 -38 39 3 54 -2 44 -17 -28 -45 -24 -77 6 -52 16 13 40 19
55 13 14 -5 48 3 75 17 27 15 36 28 20 28 -21 1 -18 9 10 30 22 17 30 30 19
31 -11 0 3 12 30 26 28 14 50 39 51 55 0 16 5 38 11 49 20 35 -30 100 -75 98
-29 -2 -40 7 -33 25 6 15 0 27 -12 27 -12 0 -22 -11 -22 -25 -1 -17 -7 -15
-20 5 -11 17 -20 21 -20 9z"/>
<path d="M815 3669 c-85 -56 -156 -179 -176 -309 -16 -98 28 -928 60 -1140 29
-194 59 -461 82 -729 46 -546 141 -616 899 -660 105 -7 222 -16 260 -22 79
-11 271 -31 840 -89 780 -79 1248 -40 1849 154 399 129 581 274 622 496 9 44
29 112 46 150 17 39 37 168 44 290 25 387 87 1129 113 1365 7 59 0 101 -22
135 -18 27 -32 88 -32 136 0 141 -101 175 -550 185 -298 6 -321 2 -354 -57
-33 -62 -54 -193 -33 -206 52 -32 -42 -587 -130 -768 -76 -157 -398 -424 -631
-524 -350 -151 -1267 -47 -1656 188 -361 218 -432 381 -479 1104 -19 276 -27
283 -357 312 -143 12 -273 26 -290 30 -16 4 -64 -15 -105 -41z"/>
</g>
</svg>
