<?xml version="1.0" standalone="no"?>
<!DOCTYPE svg PUBLIC "-//W3C//DTD SVG 20010904//EN"
 "http://www.w3.org/TR/2001/REC-SVG-20010904/DTD/svg10.dtd">
<svg version="1.0" xmlns="http://www.w3.org/2000/svg"
 width="900.000000pt" height="1314.000000pt" viewBox="0 0 900.000000 1314.000000"
 preserveAspectRatio="xMidYMid meet">
<metadata>
Created by potrace 1.10, written by Peter Selinger 2001-2011
</metadata>
<g transform="translate(0.000000,1314.000000) scale(0.100000,-0.100000)"
fill="#656565" stroke="none">
<path d="M5320 13040 c-14 -4 -71 -8 -127 -9 -57 -1 -103 -5 -103 -10 0 -5
-26 -12 -57 -15 -32 -3 -96 -10 -143 -16 -47 -6 -98 -11 -114 -11 -16 0 -43
-6 -60 -13 -35 -16 -130 -37 -196 -43 -25 -3 -52 -11 -60 -18 -8 -7 -26 -16
-40 -19 -14 -4 -34 -11 -45 -15 -11 -5 -45 -16 -75 -26 -30 -10 -65 -24 -77
-31 -12 -8 -30 -14 -40 -14 -10 0 -27 -7 -37 -15 -11 -8 -28 -15 -38 -15 -11
0 -36 -9 -56 -19 -20 -11 -48 -23 -62 -29 -87 -33 -265 -136 -310 -179 -24
-22 -139 -103 -147 -103 -5 0 -98 -91 -208 -202 -181 -183 -245 -255 -245
-274 0 -3 -12 -23 -27 -43 -30 -38 -41 -57 -76 -124 -11 -23 -27 -46 -33 -52
-7 -5 -19 -31 -28 -56 -14 -42 -49 -124 -82 -192 -8 -16 -14 -34 -14 -41 0 -7
-16 -44 -35 -83 -19 -39 -35 -76 -35 -81 0 -5 -7 -15 -15 -22 -8 -7 -15 -22
-15 -34 0 -11 -7 -30 -15 -40 -8 -11 -15 -30 -15 -42 0 -12 -6 -27 -14 -33 -8
-6 -17 -37 -21 -69 -7 -64 -10 -76 -54 -212 -17 -53 -31 -106 -31 -117 0 -12
-4 -24 -9 -27 -4 -3 -11 -26 -14 -51 -4 -25 -13 -59 -22 -75 -8 -16 -15 -44
-15 -62 0 -36 -25 -151 -39 -183 -5 -11 -15 -53 -22 -93 -7 -40 -16 -75 -21
-78 -4 -3 -8 -22 -8 -43 0 -20 -5 -42 -11 -48 -6 -6 -13 -48 -16 -94 -3 -46
-11 -98 -19 -116 -8 -17 -14 -51 -14 -75 0 -24 -4 -48 -9 -53 -4 -6 -14 -57
-21 -115 -7 -58 -17 -111 -22 -117 -6 -7 -8 -21 -6 -31 3 -10 -2 -51 -10 -92
-8 -41 -16 -104 -19 -140 -2 -36 -8 -74 -13 -85 -5 -11 -11 -49 -12 -85 -3
-58 -6 -66 -30 -79 -22 -13 -33 -13 -61 -3 -22 8 -97 12 -213 12 -99 0 -184 4
-190 9 -11 12 -220 22 -449 23 -171 1 -252 -6 -270 -23 -5 -5 -33 -9 -63 -9
-29 0 -62 -5 -73 -11 -15 -7 -24 -7 -35 1 -8 8 -25 10 -41 5 -43 -11 -183 -26
-231 -25 -23 0 -52 -6 -64 -15 -13 -8 -34 -15 -48 -15 -14 0 -47 -9 -75 -19
l-50 -19 -5 -52 -5 -53 -55 -18 c-30 -10 -65 -18 -76 -18 -12 -1 -42 -10 -68
-21 -42 -19 -46 -23 -39 -48 15 -56 8 -136 -16 -180 -12 -24 -20 -46 -18 -49
3 -2 -1 -20 -9 -38 -8 -20 -14 -68 -14 -118 0 -52 -5 -88 -12 -95 -8 -8 -14
-60 -16 -150 -2 -75 -8 -141 -13 -146 -13 -14 -12 -683 1 -691 6 -3 10 -23 10
-43 0 -48 5 -54 65 -83 28 -13 52 -27 55 -30 6 -7 25 -17 131 -72 40 -21 78
-42 85 -48 8 -7 14 -7 19 1 3 5 16 10 28 10 12 0 30 7 40 15 29 21 545 22 586
0 18 -9 56 -15 94 -15 34 0 68 -5 74 -11 7 -7 173 -13 509 -17 l499 -7 7 -45
c3 -25 12 -65 19 -90 7 -25 14 -112 16 -195 2 -82 8 -159 13 -170 5 -11 11
-51 14 -90 2 -38 9 -117 16 -175 6 -58 11 -127 10 -154 0 -30 5 -55 14 -65 13
-14 15 -106 17 -616 1 -539 0 -603 -15 -630 -14 -27 -16 -96 -15 -676 0 -540
3 -651 15 -674 18 -35 18 -88 -1 -124 -10 -20 -14 -60 -14 -127 0 -55 -5 -133
-11 -174 -18 -114 -24 -320 -9 -346 7 -14 9 -35 4 -56 -4 -18 -9 -85 -11 -148
-3 -63 -8 -124 -13 -135 -9 -19 -21 -102 -25 -177 -2 -20 -7 -43 -13 -50 -20
-24 -25 -139 -25 -558 0 -439 10 -633 34 -715 14 -49 16 -50 49 -47 19 2 42 8
53 14 17 9 18 7 12 -46 -12 -91 2 -116 145 -258 l127 -128 50 0 c28 0 53 -4
56 -9 3 -5 101 -12 218 -16 153 -5 217 -11 228 -20 8 -7 49 -15 90 -18 89 -6
187 -23 215 -39 11 -6 56 -12 100 -14 44 -1 100 -8 125 -14 96 -26 475 -49
493 -31 6 6 26 11 44 11 21 0 36 6 39 15 4 8 12 15 19 15 21 0 184 142 201
175 9 17 24 57 35 90 11 33 24 68 30 77 5 10 9 31 9 47 0 15 7 48 16 72 26 68
34 144 45 404 7 162 15 257 25 291 13 43 17 207 25 1135 11 1230 15 1436 29
1464 6 12 12 216 15 485 3 256 10 704 15 995 6 292 13 765 15 1053 l5 522 129
0 c99 0 131 3 140 14 10 12 16 12 39 0 19 -10 64 -14 149 -14 74 0 124 -4 128
-10 4 -6 45 -11 93 -12 188 -1 337 -10 349 -20 7 -5 41 -12 75 -14 35 -2 133
-8 218 -14 277 -17 364 -26 411 -42 64 -21 93 -7 190 92 42 44 82 80 88 80 11
0 124 109 159 154 12 16 22 40 22 54 0 14 17 54 38 90 20 35 42 73 48 84 6 10
22 31 36 46 46 50 166 217 173 240 3 12 10 22 14 22 4 0 13 11 19 24 6 13 20
35 32 47 47 52 90 112 90 125 0 8 5 14 10 14 6 0 14 8 17 18 4 9 19 35 35 56
15 21 28 44 28 51 0 6 19 32 42 56 23 24 56 65 74 91 17 27 43 57 57 68 14 11
41 43 60 72 20 29 50 69 69 88 30 32 33 40 32 95 -2 85 -15 185 -24 185 -4 0
-11 30 -14 68 -15 164 -19 188 -27 198 -13 16 -73 25 -199 30 -58 2 -114 9
-125 14 -36 16 -185 23 -485 23 -300 0 -408 -6 -446 -25 -20 -10 -43 -8 -153
8 -24 4 -52 2 -65 -4 -11 -6 -48 -13 -81 -16 -33 -3 -79 -8 -101 -11 -26 -4
-44 -3 -48 4 -9 15 -87 14 -123 -1 -35 -14 -793 -12 -807 3 -6 5 -79 9 -163 9
-140 0 -153 2 -163 19 -15 28 -12 87 4 100 9 7 17 39 20 79 9 123 31 267 43
288 7 11 11 43 11 70 -1 45 18 119 43 166 5 10 9 25 9 34 0 9 7 28 14 42 8 15
22 45 31 67 16 38 71 148 126 252 14 26 42 74 62 105 20 31 37 66 37 78 0 15
13 26 47 41 26 11 50 23 53 27 3 4 31 20 62 35 31 15 60 32 63 37 3 6 13 10
22 10 8 0 28 9 44 21 18 13 50 22 82 25 29 2 111 9 182 14 159 13 270 13 675
0 480 -16 852 -11 874 11 6 5 39 9 74 9 35 0 71 4 80 9 10 5 87 12 172 16 100
5 166 12 186 22 34 15 195 30 460 41 102 4 166 11 176 19 8 7 55 13 118 15
103 3 104 3 111 30 4 15 28 52 53 81 l46 54 0 315 c0 173 4 318 9 324 12 12
22 80 27 196 5 94 6 98 30 104 22 6 24 11 24 73 0 41 6 77 16 96 12 23 17 73
21 205 7 216 -1 320 -28 351 -10 12 -19 31 -19 42 0 27 -52 137 -65 137 -5 1
-26 14 -45 30 -26 23 -44 30 -77 30 -23 0 -44 4 -47 9 -3 4 -38 12 -78 16 -40
3 -106 18 -148 32 -72 25 -101 33 -200 54 -69 14 -229 41 -350 59 -41 6 -82
17 -90 25 -9 8 -33 15 -53 15 -20 0 -39 5 -42 10 -4 6 -28 11 -53 11 -84 0
-166 10 -197 24 -19 8 -68 13 -130 13 -137 0 -276 11 -302 24 -13 6 -46 8 -85
4 -86 -10 -119 -9 -218 4 -169 22 -182 22 -205 10 -14 -8 -36 -10 -57 -6 -18
4 -67 12 -108 18 -92 12 -955 20 -990 8z m100 -555 c0 -8 -4 -15 -9 -15 -13 0
-22 16 -14 24 11 11 23 6 23 -9z m748 -5017 c4 -32 -34 -60 -49 -37 -12 20
-11 43 3 57 20 20 43 9 46 -20z m-2075 -6186 c-2 -50 -11 -79 -28 -85 -23 -10
-45 21 -45 63 0 42 19 62 55 57 16 -1 20 -9 18 -35z m-1273 -447 c7 -14 11
-28 8 -31 -12 -11 -48 17 -48 36 0 28 24 25 40 -5z m-160 -83 c0 -29 -10 -33
-42 -16 -34 18 -28 34 13 34 21 0 29 -5 29 -18z"/>
</g>
</svg>
